<svg width="187" height="24" viewBox="0 0 187 24" fill="none" xmlns="http://www.w3.org/2000/svg">
<g clip-path="url(#clip0)">
<path d="M167.609 13.0466V15.6221H166.269V14.1305H160.245V15.6221H158.889V13.0466H159.226C159.728 13.0466 160.059 12.6986 160.26 12.0771C160.492 11.2003 160.613 10.2985 160.621 9.39218L160.712 7.18459H166.444V13.0516L167.609 13.0466ZM161.685 11.7539C161.619 12.2332 161.41 12.6818 161.083 13.0416H165.049V8.2685H161.987L161.936 9.49659C161.916 10.2527 161.834 11.006 161.691 11.7489L161.685 11.7539ZM170.445 13.7725C169.834 13.4887 169.314 13.0452 168.939 12.4898C168.582 11.9442 168.391 11.3079 168.391 10.6576C168.391 10.0073 168.582 9.37089 168.939 8.82537C169.314 8.26997 169.834 7.82643 170.445 7.54258C171.122 7.23776 171.857 7.08005 172.601 7.08005C173.345 7.08005 174.08 7.23776 174.757 7.54258C175.367 7.82464 175.888 8.26649 176.263 8.82039C176.62 9.36788 176.81 10.0058 176.81 10.6576C176.81 11.3093 176.62 11.9472 176.263 12.4947C175.886 13.0473 175.366 13.4888 174.757 13.7725C174.08 14.0774 173.345 14.2351 172.601 14.2351C171.857 14.2351 171.122 14.0774 170.445 13.7725ZM174.009 12.7781C174.419 12.585 174.767 12.2819 175.013 11.9031C175.253 11.5272 175.377 11.0899 175.369 10.6451C175.376 10.2005 175.252 9.7635 175.013 9.3872C174.767 9.00989 174.419 8.70845 174.009 8.5171C173.569 8.31086 173.088 8.20389 172.601 8.20389C172.114 8.20389 171.633 8.31086 171.193 8.5171C170.783 8.70845 170.435 9.00989 170.189 9.3872C169.95 9.7635 169.826 10.2005 169.833 10.6451C169.825 11.0899 169.949 11.5272 170.189 11.9031C170.435 12.2819 170.782 12.585 171.193 12.7781C171.633 12.9844 172.114 13.0913 172.601 13.0913C173.088 13.0913 173.569 12.9844 174.009 12.7781ZM185.615 14.1405V9.52642L183.039 13.3449H182.387L179.817 9.58609V14.1405H178.441V7.17962H179.636L182.718 11.7837L185.78 7.18459H186.965V14.1454L185.615 14.1405Z" fill="#E9041E"/>
<path d="M103.221 6.9857C103.815 6.92718 104.408 7.1033 104.871 7.47575C105.335 7.8482 105.631 8.38685 105.695 8.97451V9.37228C105.695 10.8241 104.742 11.6594 103.186 11.6594H100.144V14.0062H98.8887V6.9857H103.221ZM103.281 10.4661C103.559 10.484 103.834 10.393 104.045 10.2126C104.256 10.0322 104.387 9.77685 104.41 9.50155V9.3325C104.44 9.03811 104.351 8.74405 104.163 8.51413C103.975 8.28421 103.703 8.13699 103.406 8.10441H100.134V10.4413L103.281 10.4661ZM110.434 14.1454C108.175 14.1454 106.318 12.6538 106.318 10.4562C106.318 8.25854 108.175 6.76693 110.434 6.76693C112.693 6.76693 114.55 8.25854 114.55 10.4562C114.55 12.6538 112.693 14.1454 110.434 14.1454ZM110.434 7.95525C109.754 7.90575 109.083 8.12401 108.565 8.56256C108.047 9.0011 107.725 9.62446 107.668 10.2971V10.4462C107.668 11.8981 108.742 12.9621 110.429 12.9621C112.116 12.9621 113.19 11.8981 113.19 10.4462C113.19 8.9944 112.121 7.96022 110.429 7.96022L110.434 7.95525ZM119.841 14.1405C117.472 14.1405 115.725 12.6488 115.725 10.4512C115.725 8.25357 117.532 6.76196 119.841 6.76196C121.024 6.71824 122.183 7.09572 123.109 7.82597L122.431 8.82038C121.709 8.25385 120.818 7.93926 119.896 7.92541C118.149 7.92541 117.075 8.98446 117.075 10.3816C117.075 11.7787 118.149 12.9273 119.896 12.9273C120.83 12.9339 121.739 12.6331 122.481 12.0721L123.154 13.0665C122.185 13.7543 121.023 14.1246 119.831 14.1255L119.841 14.1405ZM133.977 12.2362L133.188 13.9267H131.783L135.221 6.96581H136.577L140.015 13.9267H138.61L137.822 12.2511L133.977 12.2362ZM134.529 11.1224H137.239L135.884 8.27346L134.529 11.1224Z" fill="black"/>
<path d="M146.887 13.9714V10.9385H142.269V13.9714H140.964V7.01055H142.269V9.85953H146.887V6.98569H148.182V13.9714H146.887ZM150.15 13.9714V7.01055H151.455V10.2523L155.004 7.01055H156.585L152.971 10.3617L156.746 13.9913H154.999L151.45 10.5805V13.9615L150.15 13.9714ZM128.851 9.49657H125.809V8.05468H130.829V6.93597H124.454V13.9217H128.796C130.302 13.9217 131.391 13.0764 131.391 11.6843C131.391 10.2921 130.438 9.50652 128.851 9.50652V9.49657ZM128.967 12.7483H125.804V10.6749H128.967C129.755 10.6749 130.262 11.1224 130.262 11.739C130.262 12.3555 129.87 12.798 128.967 12.7334" fill="black"/>
<path d="M80.1902 3.57986H94.3458V10.7296H80.1902V3.57986Z" fill="#E9041E"/>
<path d="M80.1902 10.3717H94.3458V17.3524H80.1902V10.3717Z" fill="black"/>
<path d="M82.6248 9.99377H91.8108V10.8291H82.6248V9.99377Z" fill="white"/>
<path d="M0 0H7.61493V1.95401H2.53998V3.40584H4.89926C5.80663 3.3362 6.7088 3.59404 7.43924 4.13176C7.7395 4.36748 7.97828 4.67112 8.1355 5.01719C8.29273 5.36326 8.36381 5.74165 8.34279 6.12057C8.36465 6.52894 8.28447 6.93635 8.10935 7.30668C7.93422 7.67701 7.66957 7.99884 7.33884 8.24363C6.5324 8.81201 5.5566 9.09567 4.56795 9.0491H0V0ZM4.39728 7.25917C4.7529 7.27103 5.10354 7.17378 5.40123 6.98073C5.51143 6.89456 5.59971 6.78401 5.65898 6.65795C5.71826 6.53189 5.74689 6.39382 5.74257 6.25482C5.74257 5.64326 5.29079 5.31013 4.38724 5.31013H2.52994V7.26414L4.39728 7.25917ZM18.071 0L14.2661 6.96084C13.924 7.64662 13.4214 8.24153 12.8003 8.69608C12.2335 9.07129 11.5644 9.26562 10.8828 9.25295C10.3221 9.26416 9.76503 9.16092 9.24634 8.94966L9.86879 7.06029C10.1572 7.16957 10.4635 7.22519 10.7723 7.22436C11.0081 7.22296 11.2402 7.16676 11.45 7.06029C11.6806 6.90613 11.8728 6.70212 12.0122 6.46364L8.53354 0H11.2442L13.3876 4.3555L15.5612 0H18.071ZM27.5784 7.0404V10.8937H25.2091V9.05407H19.336V10.8937H16.9767V7.0404H17.313C17.8753 7.0404 18.2166 6.64263 18.4425 5.92169C18.7154 4.9016 18.8471 3.84951 18.834 2.79428L18.9495 0H26.3285V7.0404H27.5784ZM20.867 5.46924C20.7875 6.0241 20.5945 6.55704 20.2998 7.03543H23.7433V2.06339H21.1481V3.0578C21.1075 3.86682 21.0136 4.67234 20.867 5.46924ZM36.88 0L33.1302 6.96084C32.7794 7.65821 32.2626 8.26058 31.6243 8.71597C31.0575 9.09118 30.3884 9.28551 29.7068 9.27284C29.1582 9.27235 28.6153 9.16243 28.1105 8.94966L28.7329 7.06029C29.0214 7.16957 29.3277 7.22519 29.6365 7.22436C29.8722 7.22296 30.1043 7.16676 30.3141 7.06029C30.5356 6.90329 30.7191 6.6995 30.8513 6.46364L27.3374 0H30.0481L32.1865 4.3555L34.4052 0H36.88ZM49.5297 7.0404V0H46.9345V7.0404H44.6254V0H42.0302V7.0404H39.6559V0H37.146V9.0491H48.34V10.8888H50.6993V7.03543L49.5297 7.0404ZM58.8814 7.09012V9.04413H51.5526V0H58.7308V1.95401H54.1127V3.48042H58.1787V5.36979H54.1127V7.04537L58.8814 7.09012ZM67.164 7.09012V9.04413H59.785V0H66.9481V1.95401H62.33V3.48042H66.3859V5.36979H62.33V7.04537L67.164 7.09012ZM68.5695 3.67433H75.0952V5.12617H68.5695V3.67433ZM30.284 11.8931C31.0046 12.2712 31.5939 12.8549 31.9757 13.5687C32.3905 14.3123 32.6081 15.1479 32.6081 15.9975C32.6081 16.8471 32.3905 17.6828 31.9757 18.4264C31.5939 19.1401 31.0046 19.7238 30.284 20.1019C29.5174 20.5011 28.6653 20.7125 27.7993 20.7185C27.0264 20.7097 26.262 20.5579 25.5454 20.271C24.8803 19.9909 24.2981 19.5478 23.8538 18.9832L25.4902 17.5314C25.7507 17.8628 26.0842 18.1309 26.4653 18.3153C26.8463 18.4997 27.2648 18.5955 27.6888 18.5954C28.1992 18.5951 28.697 18.4388 29.1144 18.1479C29.5058 17.8314 29.7781 17.3935 29.8875 16.9049H26.5544V15.0155H29.8272C29.7078 14.5466 29.4297 14.1324 29.0391 13.8421C28.6251 13.5558 28.1335 13.3999 27.6286 13.3947C27.2054 13.3996 26.7886 13.4976 26.4084 13.6816C26.0282 13.8656 25.694 14.1311 25.43 14.4587L23.7935 13.0019C24.2374 12.4381 24.8198 11.9964 25.4852 11.7191C26.2018 11.4322 26.9662 11.2804 27.739 11.2716C28.6245 11.2629 29.4979 11.4749 30.279 11.8881L30.284 11.8931ZM40.71 13.514H37.8889V20.5494H35.3791V13.514H32.5279V11.5003H40.71V13.514ZM43.0693 20.1019C42.5246 19.824 42.0406 19.4424 41.6448 18.9791C41.2491 18.5157 40.9494 17.9797 40.763 17.4016C40.5765 16.8235 40.5069 16.2146 40.5581 15.6098C40.6093 15.0051 40.7803 14.4162 41.0614 13.8769V13.8471C41.5071 13.0152 42.1942 12.3346 43.0341 11.8931C43.8354 11.4792 44.7257 11.263 45.6293 11.263C46.533 11.263 47.4233 11.4792 48.2245 11.8931C48.7697 12.1706 49.2542 12.5519 49.6503 13.0151C50.0464 13.4784 50.3463 14.0145 50.5328 14.5928C50.7194 15.1711 50.7888 15.7802 50.7373 16.3851C50.6857 16.99 50.5142 17.5789 50.2324 18.1181V18.1479C49.7852 18.9788 49.0985 19.659 48.2597 20.1019C47.4498 20.4872 46.5629 20.6873 45.6645 20.6873C44.7661 20.6873 43.8791 20.4872 43.0693 20.1019ZM46.9044 18.2623C47.2715 18.0395 47.5809 17.7347 47.8079 17.3723C48.0303 16.9591 48.1466 16.4981 48.1466 16.0298C48.1466 15.5616 48.0303 15.1006 47.8079 14.6874C47.6123 14.3014 47.2951 13.989 46.9044 13.7974C46.5288 13.5778 46.1006 13.462 45.6645 13.462C45.2284 13.462 44.8002 13.5778 44.4246 13.7974C44.0575 14.0202 43.7481 14.325 43.5211 14.6874C43.2987 15.1006 43.1824 15.5616 43.1824 16.0298C43.1824 16.4981 43.2987 16.9591 43.5211 17.3723C43.7324 17.7467 44.0454 18.055 44.4246 18.2623C44.8002 18.4818 45.2284 18.5976 45.6645 18.5976C46.1006 18.5976 46.5288 18.4818 46.9044 18.2623ZM62.2446 16.5867C62.5343 16.9739 62.6925 17.4422 62.6964 17.9242C62.699 18.2932 62.6135 18.6576 62.4469 18.9877C62.2803 19.3177 62.0372 19.6041 61.7377 19.8235C60.9347 20.34 59.9884 20.5939 59.032 20.5494H54.3486V11.4357H58.8061C59.6964 11.3803 60.5825 11.5954 61.3461 12.0522C61.6487 12.24 61.8928 12.5071 62.0514 12.8239C62.21 13.1408 62.2769 13.4949 62.2446 13.8471C62.245 14.2616 62.1285 14.668 61.9083 15.0205C61.6787 15.3523 61.3678 15.6208 61.0048 15.8011C61.4953 15.9178 61.932 16.1945 62.2446 16.5867ZM56.8886 15.0951H58.525C59.2579 15.0951 59.5993 14.8167 59.5993 14.2001C59.5993 13.5836 59.1977 13.3052 58.525 13.3052H56.8886V15.0951ZM60.051 17.78C60.051 17.1635 59.6595 16.885 58.9266 16.885H56.9187V18.7247H58.9266C59.6595 18.7247 60.051 18.3866 60.051 17.78ZM70.6929 15.0752C71.0027 15.3575 71.2448 15.7051 71.4012 16.0923C71.5575 16.4795 71.6242 16.8965 71.5964 17.3126C71.6174 17.7614 71.5384 18.2092 71.3649 18.6243C71.1914 19.0393 70.9276 19.4114 70.5925 19.7141C69.7826 20.324 68.7762 20.621 67.7613 20.5494H63.4193V11.4357H65.9592V14.3393H68.0977C69.0196 14.3063 69.9282 14.564 70.6929 15.0752ZM68.6097 18.317C68.7394 18.186 68.841 18.0304 68.9083 17.8595C68.9756 17.6886 69.0072 17.5059 69.0012 17.3226C69.0012 16.537 68.5494 16.1492 67.5957 16.1492H66.0195V18.6352H67.6559C68.0023 18.6374 68.3396 18.5255 68.6147 18.317H68.6097ZM72.6254 11.4456H75.1654V20.5444H72.6254V11.4456ZM130.252 24C130.109 24.0201 129.963 24.0093 129.824 23.9683C129.686 23.9274 129.558 23.8574 129.449 23.7629C129.341 23.6685 129.254 23.552 129.195 23.4213C129.136 23.2906 129.106 23.1488 129.107 23.0056V21.688H129.509V22.9807C129.509 23.3785 129.77 23.6172 130.232 23.6172C130.694 23.6172 130.96 23.3835 130.96 22.9807V21.688H131.381V23.0205C131.38 23.161 131.349 23.2997 131.29 23.4274C131.231 23.5551 131.146 23.669 131.039 23.7616C130.932 23.8541 130.807 23.9232 130.671 23.9643C130.536 24.0054 130.393 24.0176 130.252 24ZM127.29 24C126.969 24.0152 126.654 23.906 126.412 23.6953C126.17 23.4847 126.021 23.1892 125.995 22.8713C125.993 22.8549 125.993 22.8381 125.995 22.8216C126.024 22.4932 126.176 22.1875 126.422 21.9647C126.667 21.742 126.988 21.6184 127.32 21.6184C127.653 21.6184 127.974 21.742 128.219 21.9647C128.465 22.1875 128.617 22.4932 128.646 22.8216C128.646 22.9847 128.612 23.146 128.546 23.2951C128.479 23.4441 128.381 23.5776 128.259 23.6868C127.995 23.9024 127.663 24.0186 127.32 24.0149L127.29 24ZM127.29 22.0112C127.078 22.0035 126.871 22.0776 126.714 22.2181C126.556 22.3585 126.459 22.5542 126.444 22.7639C126.429 22.9735 126.497 23.1808 126.633 23.3418C126.77 23.5029 126.964 23.6052 127.175 23.6271H127.29C127.503 23.6371 127.712 23.5642 127.871 23.4242C128.031 23.2841 128.129 23.0879 128.145 22.8772C128.161 22.6666 128.093 22.4582 127.956 22.2964C127.818 22.1347 127.623 22.0323 127.411 22.0112H127.29ZM121.703 24C121.356 24.0077 121.017 23.8912 120.75 23.6718C120.627 23.5631 120.53 23.4295 120.464 23.2803C120.398 23.131 120.366 22.9695 120.368 22.8067C120.372 22.6405 120.411 22.4769 120.481 22.326C120.552 22.1751 120.652 22.04 120.778 21.9292C120.903 21.8183 121.049 21.734 121.208 21.6814C121.368 21.6288 121.536 21.6091 121.703 21.6234C122.086 21.6143 122.46 21.7315 122.768 21.9565L122.542 22.2846C122.306 22.1059 122.016 22.0113 121.718 22.0162H121.688C121.583 22.0066 121.477 22.0176 121.376 22.0487C121.275 22.0798 121.182 22.1302 121.101 22.1972C121.019 22.2642 120.952 22.3463 120.903 22.439C120.854 22.5316 120.824 22.6329 120.815 22.7371V22.8067C120.817 23.0212 120.905 23.2261 121.059 23.3769C121.214 23.5277 121.421 23.6122 121.638 23.6122H121.723C121.946 23.6129 122.167 23.5671 122.371 23.4779V22.8117H122.783V23.6868C122.459 23.8874 122.085 23.9942 121.703 23.995V24ZM84.1708 24C83.8298 24.006 83.4981 23.8894 83.2372 23.6718C83.1123 23.5656 83.0125 23.4335 82.9449 23.2849C82.8772 23.1362 82.8433 22.9747 82.8456 22.8117C82.8561 22.4868 82.9962 22.1793 83.2352 21.9565C83.4742 21.7338 83.7926 21.614 84.1206 21.6234H84.1708C84.3324 21.6119 84.4947 21.6321 84.6484 21.6829C84.802 21.7337 84.944 21.8141 85.0663 21.9195C85.1885 22.0248 85.2885 22.153 85.3605 22.2967C85.4325 22.4405 85.4752 22.5969 85.486 22.757V22.8067C85.484 22.9658 85.4504 23.1229 85.3869 23.2691C85.3235 23.4153 85.2315 23.5476 85.1163 23.6585C85.0011 23.7694 84.865 23.8566 84.7156 23.9152C84.5663 23.9738 84.4067 24.0026 84.2461 24H84.1708ZM84.1708 22.0112C84.0599 21.9939 83.9466 21.9994 83.838 22.0274C83.7293 22.0554 83.6277 22.1052 83.5393 22.1737C83.4509 22.2423 83.3777 22.3281 83.3243 22.4259C83.2708 22.5236 83.2382 22.6312 83.2286 22.742C83.2189 22.8528 83.2324 22.9643 83.2681 23.0697C83.3038 23.1752 83.3611 23.2721 83.4363 23.3547C83.5115 23.4373 83.603 23.5036 83.7052 23.5496C83.8074 23.5956 83.918 23.6203 84.0303 23.6221H84.1708C84.282 23.6395 84.3955 23.634 84.5044 23.6059C84.6133 23.5779 84.7151 23.5279 84.8036 23.4591C84.8921 23.3902 84.9653 23.3041 85.0187 23.206C85.072 23.1079 85.1044 22.9999 85.1138 22.8889C85.1231 22.7778 85.1092 22.6661 85.073 22.5606C85.0368 22.4551 84.9789 22.3581 84.9032 22.2758C84.8274 22.1934 84.7353 22.1274 84.6326 22.0819C84.5299 22.0363 84.4189 22.0123 84.3064 22.0112H84.1708ZM99.4659 24C99.1188 24.0064 98.7806 23.89 98.5122 23.6718C98.3902 23.5638 98.2931 23.4311 98.2272 23.2828C98.1614 23.1344 98.1285 22.9737 98.1307 22.8117C98.1349 22.6455 98.1733 22.4819 98.2438 22.331C98.3142 22.1801 98.415 22.045 98.5401 21.9342C98.6652 21.8233 98.8119 21.739 98.9711 21.6864C99.1303 21.6338 99.2987 21.614 99.4659 21.6283C99.8461 21.6174 100.219 21.7329 100.525 21.9565L100.299 22.2896C100.066 22.1057 99.7739 22.0105 99.476 22.0211H99.4509C99.346 22.0116 99.2402 22.0227 99.1397 22.0538C99.0392 22.0849 98.9458 22.1355 98.8651 22.2025C98.7844 22.2695 98.7178 22.3517 98.6693 22.4443C98.6208 22.5369 98.5913 22.6381 98.5825 22.7421C98.5798 22.7652 98.5798 22.7886 98.5825 22.8117C98.5876 23.0206 98.674 23.2195 98.8237 23.3668C98.9734 23.5141 99.1747 23.5985 99.3856 23.6022H99.476C99.6989 23.6023 99.9194 23.5566 100.124 23.468V22.8117H100.525V23.6818C100.207 23.8814 99.8378 23.9883 99.4609 23.9901L99.4659 24ZM87.2178 24C86.8722 24.0061 86.5358 23.8897 86.2691 23.6718C86.1452 23.5653 86.0468 23.4329 85.9808 23.2842C85.9149 23.1355 85.883 22.9741 85.8876 22.8117C85.8911 22.6457 85.9289 22.4822 85.9988 22.3313C86.0686 22.1804 86.169 22.0453 86.2937 21.9344C86.4184 21.8235 86.5648 21.7391 86.7237 21.6864C86.8827 21.6338 87.0508 21.614 87.2178 21.6283C87.5988 21.6169 87.9724 21.7344 88.277 21.9615L88.0511 22.2896C87.8162 22.1081 87.5257 22.0116 87.2278 22.0162C87.0146 21.9966 86.8021 22.0606 86.636 22.1945C86.4699 22.3283 86.3634 22.5214 86.3393 22.7321C86.3367 22.7553 86.3367 22.7786 86.3393 22.8017C86.34 22.9075 86.3617 23.0121 86.4032 23.1096C86.4446 23.2071 86.5051 23.2955 86.5811 23.3698C86.6571 23.4442 86.7471 23.503 86.846 23.5428C86.9449 23.5827 87.0508 23.6029 87.1576 23.6022H87.2479C87.548 23.6066 87.8411 23.5122 88.0812 23.3337L88.3021 23.6619C87.9884 23.8894 87.6063 24.005 87.2178 23.9901V24ZM81.3748 24C80.9615 24.0094 80.5534 23.9062 80.1952 23.7017L80.3558 23.3536C80.6611 23.5289 81.0069 23.6231 81.3598 23.6271C81.7865 23.6271 82.0374 23.5127 82.0374 23.3139C82.0374 23.115 81.7112 23.0553 81.3347 22.9956C80.8327 22.9111 80.2303 22.8167 80.2303 22.2996C80.2303 21.9018 80.6319 21.6532 81.2694 21.6532C81.6335 21.6464 81.9943 21.7229 82.3236 21.8769L82.1529 22.215C81.8764 22.0908 81.5779 22.0215 81.2744 22.0112C80.8729 22.0112 80.662 22.0957 80.662 22.2598C80.662 22.4239 80.9632 22.4835 81.3146 22.5432C81.8166 22.6277 82.4792 22.7321 82.4792 23.289C82.4942 23.7116 82.0676 23.9751 81.3748 23.9751V24ZM123.782 23.9602H123.36V21.688H124.826C124.918 21.6776 125.012 21.6855 125.102 21.7112C125.191 21.7369 125.275 21.7798 125.348 21.8375C125.42 21.8953 125.481 21.9667 125.526 22.0477C125.57 22.1287 125.599 22.2177 125.609 22.3095C125.611 22.3409 125.611 22.3725 125.609 22.404C125.607 22.5799 125.538 22.7486 125.416 22.8766C125.294 23.0046 125.128 23.0826 124.951 23.0951L125.634 23.9403H125.102L124.489 23.105H123.807V23.9354L123.782 23.9602ZM123.782 22.0808V22.757H124.785C125.036 22.757 125.197 22.6327 125.197 22.4288C125.203 22.3426 125.174 22.2576 125.116 22.1925C125.059 22.1273 124.978 22.0872 124.891 22.0808H123.787H123.782ZM132.415 23.9602H131.994V21.688H133.409C133.508 21.6799 133.607 21.6912 133.702 21.7214C133.796 21.7516 133.883 21.8 133.958 21.8638C134.033 21.9276 134.095 22.0056 134.14 22.0932C134.184 22.1808 134.211 22.2763 134.218 22.3741C134.22 22.4006 134.22 22.4272 134.218 22.4537C134.222 22.5466 134.207 22.6393 134.174 22.7266C134.142 22.8138 134.092 22.8937 134.028 22.9618C133.964 23.0298 133.887 23.0845 133.802 23.1228C133.716 23.161 133.624 23.182 133.53 23.1846C133.488 23.1898 133.446 23.1898 133.404 23.1846H132.4V23.9403L132.415 23.9602ZM132.415 22.0808V22.8266H133.419C133.509 22.8307 133.597 22.7996 133.664 22.74C133.73 22.6804 133.771 22.5972 133.776 22.5084V22.4736C133.783 22.3768 133.751 22.2811 133.687 22.2076C133.623 22.134 133.532 22.0884 133.434 22.0808H132.4H132.415ZM112.086 23.9552H111.634L112.738 21.7178H113.18L114.284 23.9552H113.832L113.571 23.3735H112.342L112.081 23.9204L112.086 23.9552ZM112.954 22.1156L112.512 23.0255H113.391L112.954 22.1156ZM109.631 23.9354H109.209V21.6979H110.665C110.851 21.6784 111.036 21.7322 111.182 21.8476C111.328 21.9631 111.422 22.1309 111.443 22.3145C111.446 22.3459 111.446 22.3775 111.443 22.4089C111.443 22.5839 111.377 22.7526 111.257 22.8809C111.137 23.0091 110.972 23.0875 110.795 23.1001L111.468 23.9354H110.936L110.294 23.11H109.631V23.9403V23.9354ZM109.631 22.0609V22.7371H110.635C110.886 22.7371 111.046 22.6078 111.046 22.404C111.05 22.3618 111.045 22.3193 111.031 22.2791C111.018 22.2389 110.997 22.2017 110.969 22.1698C110.941 22.1378 110.906 22.1117 110.868 22.093C110.83 22.0743 110.788 22.0634 110.745 22.0609H109.641H109.631ZM104.109 23.9354H103.698V21.6979H104.129L105.635 23.3785L105.605 22.2747V21.6979H106.017V23.9354H105.59L104.114 22.2449V23.9354H104.109ZM118.983 23.9354H116.839V21.6979H118.907V22.0659H117.261V22.6128H118.541V22.9857H117.261V23.5724H118.968V23.9403L118.983 23.9354ZM116.508 23.9354H114.57V21.6979H114.992V23.5674H116.498V23.9354H116.508ZM108.747 23.9354H106.629V21.6979H108.702V22.0659H107.046V22.6128H108.331V22.9857H107.046V23.5724H108.768V23.9403L108.747 23.9354ZM103.226 23.9354H101.082V21.6979H103.155V22.0659H101.499V22.6128H102.784V22.9857H101.499V23.5724H103.221V23.9403L103.226 23.9354ZM96.8205 23.9354H94.6771V21.6979H96.7452V22.0659H95.0988V22.6128H96.3788V22.9857H95.0988V23.5724H96.8155V23.9403L96.8205 23.9354ZM92.9855 23.9354V22.0559H92.0618V21.693H94.3709V22.0559H93.4473V23.9354H92.9855ZM91.8711 23.9354H89.7277V21.6979H91.8611V22.0659H90.2045V22.6128H91.4896V22.9857H90.2045V23.5724H91.9263V23.9403L91.8711 23.9354ZM88.7087 23.9354V21.6979H89.1303V23.9354H88.7087Z" fill="black"/>
</g>
<defs>
<clipPath id="clip0">
<rect width="187" height="24" fill="white"/>
</clipPath>
</defs>
</svg>
